<svg width="38" height="40" viewBox="0 0 38 40" fill="none" xmlns="http://www.w3.org/2000/svg">
    <path fill-rule="evenodd" clip-rule="evenodd" d="M31.0062 7.84118C27.5836 8.57793 24.7575 9.17592 24.7259 9.1701C24.6944 9.16436 24.8769 8.16551 25.1316 6.95061L25.5946 4.74166L19.5519 6.55575C12.5002 8.67284 12.4587 8.68625 11.3324 9.22345C8.2862 10.6765 5.85513 13.1011 4.43091 16.1069C1.80825 21.642 3.03737 28.2609 7.50233 32.6463C11.272 36.3489 16.919 37.9243 22.0659 36.7092C27.1803 35.5017 31.1416 31.9178 32.7622 27.032C33.0533 26.1548 37.3805 6.53373 37.2874 6.51393C37.2554 6.50714 34.4289 7.10442 31.0062 7.84118ZM21.4777 14.8521C26.0768 16.7079 28.0338 21.8889 25.7834 26.2512C25.4202 26.9552 24.4482 28.1497 23.8134 28.672C23.1215 29.2412 21.9608 29.8785 21.1249 30.1481C20.3307 30.4043 19.2134 30.5754 18.3261 30.5768C17.5097 30.5779 15.5356 30.1448 14.7946 29.8021C12.6073 28.7899 10.9645 27.0082 10.244 24.8664C9.05678 21.3376 10.4747 17.3896 13.6268 15.4474C15.0682 14.5593 16.7617 14.1211 18.472 14.1938C19.2614 14.2272 20.7223 14.5473 21.4777 14.8521Z" fill="#6187FA"/>
    <circle cx="15.9194" cy="19.388" r="1.58518" fill="#6187FA"/>
    <circle cx="22.0161" cy="21.0951" r="1.58518" fill="#6187FA"/>
</svg>
