<svg width="126" height="36" viewBox="0 0 126 36" fill="none" xmlns="http://www.w3.org/2000/svg">
  <path d="M14.5093 5.94385C12.317 5.94385 5.77982 5.94385 5.77982 5.94385L0 33.3805C0 33.3805 6.49731 33.3805 8.68966 33.3805C16.2234 33.3805 23.6773 27.2213 25.2718 19.6622C26.906 12.1031 22.043 5.94385 14.5093 5.94385ZM19.0136 19.6622C18.1765 23.7817 14.1107 27.1013 10.0051 27.1013C9.40715 27.1013 7.57355 27.1013 7.57355 27.1013L10.7226 12.2231C10.7226 12.2231 12.5562 12.2231 13.1939 12.2231C17.2597 12.2231 19.8905 15.5427 19.0136 19.6622Z" fill="#6187FA"/>
  <path d="M49.1354 16.2226C50.3313 10.5433 46.7438 5.94385 41.0437 5.94385C38.8912 5.94385 32.354 5.94385 32.354 5.94385L26.5742 33.3805H32.7925L34.2674 26.5413C34.2674 26.5413 36.101 26.5413 36.6989 26.5413C37.1373 26.5413 37.5758 26.5013 38.0143 26.4613L40.5255 33.3805L47.1409 31.8257L45.4483 27.0213L44.2724 23.7817C46.6641 21.9019 48.4977 19.2222 49.1354 16.2226ZM43.2759 16.2226C42.7976 18.4623 40.2465 20.2621 38.0143 20.2621C37.4164 20.2621 35.5828 20.2621 35.5828 20.2621L37.2968 12.2231C37.2968 12.2231 39.1304 12.2231 39.7283 12.2231C41.9605 12.2231 43.7542 14.0229 43.2759 16.2226Z" fill="#6187FA"/>
  <path d="M95.8523 5.94385C93.6998 5.94385 87.1626 5.94385 87.1626 5.94385L81.3828 33.3805H87.6011L89.076 26.5413C89.076 26.5413 90.9095 26.5413 91.5075 26.5413C97.1677 26.5413 102.748 21.9019 103.944 16.2226C105.14 10.5433 101.552 5.94385 95.8523 5.94385ZM98.0845 16.2226C97.6062 18.4623 95.0551 20.2621 92.8229 20.2621C92.225 20.2621 90.3914 20.2621 90.3914 20.2621L92.1054 12.2231C92.1054 12.2231 93.939 12.2231 94.5369 12.2231C96.7691 12.2231 98.5628 14.0229 98.0845 16.2226Z" fill="#6187FA"/>
  <path d="M124.645 12.2231L126 5.94385H110.415L104.635 33.3805H120.18L121.496 27.1013H112.208L113.125 22.7018H120.739L122.014 16.6225H114.441L115.357 12.2231H124.645Z" fill="#6187FA"/>
  <path fill-rule="evenodd" clip-rule="evenodd" d="M77.0791 7.05706C74.009 7.72014 71.474 8.25833 71.4458 8.25309C71.4174 8.24792 71.5812 7.34896 71.8096 6.25555L72.225 4.2675L66.8047 5.90018C60.4796 7.80555 60.4423 7.81762 59.4321 8.30111C56.6997 9.60883 54.5191 11.791 53.2416 14.4962C50.8891 19.4778 51.9916 25.4348 55.9966 29.3817C59.3779 32.714 64.4431 34.1319 69.0597 33.0383C73.6472 31.9516 77.2005 28.7261 78.6541 24.3288C78.9152 23.5393 82.7967 5.88036 82.7131 5.86254C82.6844 5.85642 80.1491 6.39398 77.0791 7.05706ZM68.5322 13.3669C72.6574 15.0372 74.4128 19.7 72.3943 23.6261C72.0685 24.2597 71.1966 25.3347 70.6272 25.8048C70.0066 26.3171 68.9655 26.8907 68.2157 27.1333C67.5034 27.3639 66.5011 27.5179 65.7052 27.5191C64.973 27.5201 63.2022 27.1304 62.5376 26.8219C60.5756 25.9109 59.1021 24.3074 58.4558 22.3798C57.3909 19.2038 58.6627 15.6506 61.4901 13.9027C62.783 13.1034 64.302 12.709 65.8361 12.7744C66.5441 12.8045 67.8546 13.0925 68.5322 13.3669Z" fill="#6187FA"/>
  <ellipse cx="63.5469" cy="17.4491" rx="1.42188" ry="1.42667" fill="#6187FA"/>
  <ellipse cx="69.0156" cy="18.9857" rx="1.42188" ry="1.42667" fill="#6187FA"/>
</svg>
